# xmcd
#
# Track frame offsets: 
#        182
#        13777
#        26540
#        42365
#        55052
#        68165
#        83697
#        97397
#        114287
#        125137
#        138777
#        152402
#        166342
#        178477
#        191890
#        204060
#        215450
#        225512
#
# Disc length: 3134 seconds
#
# Revision: 0
# Processed by: cddbd v1.5.2PL0 Copyright (c) Steve Scherf et al.
# Submitted via: ExactAudioCopyFreeDBPlugin 1.0
#
DISCID=f40c3c12
DTITLE=B.B. King - The Classic Collection
DYEAR=1993
DGENRE=Blues
TTITLE0=Rock Me Baby
TTITLE1=Every Day I Have The Blue
TTITLE2=It's My Own Fault
TTITLE3=Please Love Me
TTITLE4=Woke Up This Morning
TTITLE5=Ten Long Years
TTITLE6=Yuo Upset Me Baby
TTITLE7=Bleu Shadows
TTITLE8=Trea Me Right
TTITLE9=Sweet Little Angel
TTITLE10=The Woman I Love
TTITLE11=You Know Y Love You
TTITLE12=Miss Martha King
TTITLE13=Blues At Midnight
TTITLE14=Rockin' Awhile
TTITLE15=She's Dynamite
TTITLE16=I'm Gonna Sit In'til You Give
TTITLE17=Sneakin' Around
EXTD=
EXTT0=
EXTT1=
EXTT2=
EXTT3=
EXTT4=
EXTT5=
EXTT6=
EXTT7=
EXTT8=
EXTT9=
EXTT10=
EXTT11=
EXTT12=
EXTT13=
EXTT14=
EXTT15=
EXTT16=
EXTT17=
PLAYORDER=
